<?xml version="1.0" standalone="no"?>
<!DOCTYPE svg PUBLIC "-//W3C//DTD SVG 20010904//EN"
 "http://www.w3.org/TR/2001/REC-SVG-20010904/DTD/svg10.dtd">
<svg version="1.0" xmlns="http://www.w3.org/2000/svg"
 width="397.000000pt" height="72.000000pt" viewBox="0 0 397.000000 72.000000"
 preserveAspectRatio="xMidYMid meet">

<g transform="translate(0.000000,72.000000) scale(0.100000,-0.100000)"
fill="#000000" stroke="none">
<path d="M2504 623 c-74 -165 -191 -388 -203 -388 -8 0 -42 57 -78 130 -154
311 -147 300 -192 303 -23 2 -41 0 -41 -5 0 -14 293 -588 304 -595 6 -4 16 -2
23 5 6 7 68 125 138 262 70 138 138 269 151 291 l24 42 -22 6 c-62 16 -77 9
-104 -51z"/>
<path d="M1800 659 c0 -9 296 -596 307 -609 7 -8 43 41 43 59 0 15 -252 522
-273 549 -12 15 -77 16 -77 1z"/>
<path d="M2176 662 c-3 -5 4 -23 14 -40 17 -27 25 -32 60 -32 45 0 50 -12 24
-62 -15 -28 -15 -34 2 -69 9 -22 20 -39 25 -39 5 0 109 196 127 242 5 10 -245
11 -252 0z"/>
<path d="M57 603 c-4 -3 -7 -120 -7 -260 0 -226 2 -254 16 -260 9 -3 24 -2 33
4 13 8 17 38 21 183 3 112 9 175 16 177 6 2 75 -80 153 -182 199 -260 201
-259 201 81 0 260 -2 269 -52 262 -23 -3 -23 -4 -28 -182 -3 -107 -9 -181 -15
-182 -5 -2 -22 14 -36 34 -57 80 -241 317 -252 324 -15 10 -42 10 -50 1z"/>
<path d="M1523 553 c-8 -3 -13 -22 -13 -47 0 -49 -13 -66 -53 -66 -24 0 -28
-4 -25 -22 2 -18 11 -24 38 -28 l35 -5 5 -117 c5 -106 8 -119 30 -143 44 -47
155 -62 155 -20 0 14 -11 22 -43 30 -24 5 -48 18 -53 27 -5 10 -8 64 -7 120
l3 103 50 5 c42 4 50 8 50 25 0 17 -8 21 -50 25 l-50 5 -3 45 c-4 57 -29 80
-69 63z"/>
<path d="M657 429 c-65 -34 -96 -112 -82 -205 7 -52 53 -110 102 -130 69 -29
205 -5 219 38 10 34 -10 43 -56 24 -22 -9 -62 -16 -88 -16 -59 0 -93 30 -95
81 l-2 34 102 -4 c130 -4 143 0 143 45 0 118 -133 191 -243 133z m141 -45 c27
-19 44 -57 36 -79 -5 -13 -22 -15 -93 -13 l-86 3 2 30 c5 62 88 97 141 59z"/>
<path d="M1007 443 c-19 -18 -3 -53 48 -103 30 -30 55 -59 55 -64 0 -5 -27
-40 -61 -78 -61 -69 -69 -92 -36 -112 15 -9 27 -1 80 57 34 37 67 68 72 68 6
0 37 -30 71 -67 50 -55 64 -65 82 -60 35 12 26 39 -38 109 -33 36 -60 70 -60
77 0 6 25 37 55 69 59 62 69 95 33 107 -18 5 -32 -4 -80 -55 -32 -33 -61 -61
-66 -61 -4 0 -34 27 -66 60 -55 57 -74 68 -89 53z"/>
<path d="M2803 440 c-41 -9 -63 -27 -63 -51 0 -28 17 -32 63 -14 25 9 64 15
93 13 43 -3 51 -7 63 -32 21 -46 6 -60 -75 -67 -130 -12 -169 -45 -148 -128
17 -67 111 -103 174 -66 48 28 51 28 67 6 9 -14 23 -21 36 -19 21 3 22 8 25
136 3 153 -8 190 -63 216 -35 17 -116 20 -172 6z m160 -220 c-3 -60 -85 -112
-129 -82 -19 12 -33 48 -28 69 7 26 37 41 89 46 67 6 70 5 68 -33z"/>
<path d="M3137 443 c-16 -15 -1 -57 71 -203 81 -162 99 -183 134 -143 8 10 48
87 88 171 61 128 70 155 60 168 -18 20 -52 14 -65 -12 -5 -12 -30 -67 -55
-123 -28 -64 -50 -100 -59 -99 -7 2 -35 52 -63 113 -27 60 -54 115 -60 122
-11 14 -40 17 -51 6z"/>
<path d="M3673 430 c-55 -28 -83 -84 -83 -166 0 -111 70 -183 177 -184 92 0
176 49 137 81 -12 10 -21 9 -50 -4 -46 -23 -126 -22 -153 1 -26 21 -45 79 -28
89 6 4 55 5 109 4 120 -3 138 2 138 38 0 37 -39 111 -72 135 -41 29 -123 32
-175 6z m153 -55 c17 -17 24 -34 22 -53 -3 -27 -3 -27 -90 -30 l-88 -3 0 29
c0 73 103 110 156 57z"/>
</g>
</svg>
