<?xml version="1.0" standalone="no"?>
<!DOCTYPE svg PUBLIC "-//W3C//DTD SVG 20010904//EN"
 "http://www.w3.org/TR/2001/REC-SVG-20010904/DTD/svg10.dtd">
<svg version="1.0" xmlns="http://www.w3.org/2000/svg"
 width="298.000000pt" height="299.000000pt" viewBox="0 0 298.000000 299.000000"
 preserveAspectRatio="xMidYMid meet">

<g transform="translate(0.000000,299.000000) scale(0.100000,-0.100000)"
fill="#000000" stroke="none">
<path d="M1140 2933 c-337 -28 -598 -146 -817 -369 -135 -139 -211 -282 -257
-484 -20 -89 -21 -122 -21 -555 0 -340 4 -476 13 -520 69 -317 256 -568 528
-707 254 -130 482 -162 1061 -147 464 12 711 89 960 298 134 113 246 289 295
466 22 78 23 94 23 575 0 377 -3 513 -14 569 -48 262 -191 479 -426 646 -187
134 -371 199 -634 225 -95 9 -607 11 -711 3z m942 -795 c59 -35 103 -88 128
-156 19 -49 20 -79 20 -441 0 -415 -1 -421 -51 -485 -12 -16 -43 -42 -68 -57
-56 -36 -129 -39 -178 -9 -17 10 -96 85 -175 166 -79 82 -174 180 -211 219
l-69 70 -221 -227 c-122 -125 -235 -232 -250 -237 -98 -37 -206 19 -258 134
-17 36 -19 74 -19 427 0 366 1 390 20 442 26 67 85 130 153 162 l52 24 540 -2
540 -3 47 -27z"/>
<path d="M956 2075 c-56 -20 -86 -45 -110 -91 -20 -37 -21 -58 -24 -369 -2
-181 -1 -364 3 -405 7 -69 10 -77 45 -112 70 -70 67 -72 348 212 136 138 254
250 262 250 8 0 125 -112 260 -250 220 -224 248 -250 277 -250 45 0 99 50 114
103 7 28 10 159 7 412 -4 404 -5 412 -64 467 -16 15 -42 32 -57 37 -19 7 -197
11 -525 11 -401 -1 -505 -4 -536 -15z m1048 -76 c24 -19 27 -27 24 -72 -3 -46
-6 -53 -35 -70 -28 -16 -38 -17 -68 -7 -42 14 -55 35 -55 87 0 43 6 55 35 71
31 18 70 14 99 -9z"/>
<path d="M1920 1980 c-24 -24 -25 -38 -4 -68 15 -22 38 -27 68 -16 25 10 21
70 -6 88 -29 20 -34 20 -58 -4z m60 -40 c0 -5 -2 -10 -4 -10 -3 0 -8 5 -11 10
-3 6 -1 10 4 10 6 0 11 -4 11 -10z"/>
</g>
</svg>
